<?xml version="1.0" encoding="UTF-8"?>
<svg id="_Слой_2" xmlns="http://www.w3.org/2000/svg" version="1.1" viewBox="0 0 100 100">
  <!-- Generator: Adobe Illustrator 29.6.1, SVG Export Plug-In . SVG Version: 2.1.1 Build 9)  -->
  <defs>
    <style>
      .st0 {
        fill: #fff;
      }
    </style>
  </defs>
  <g id="_Слой_1-2">
    <g id="tg_svg">
      <path class="st0" d="M93,7C85.9,0,74.6,0,52,0h-4C25.4,0,14.1,0,7,7,0,14.1,0,25.4,0,48v4c0,22.6,0,33.9,7,41,7,7,18.3,7,41,7h4c22.6,0,33.9,0,41-7,7-7,7-18.3,7-41v-4c0-22.6,0-33.9-7-41ZM75,32.9c-.8,8.1-4.1,27.8-5.8,36.9-.7,3.8-2.1,5.1-3.5,5.2-3,.3-5.2-2-8.1-3.8-4.5-3-7-4.8-11.5-7.7-5.1-3.3-1.8-5.2,1.1-8.2.8-.8,13.9-12.7,14.1-13.8,0-.1,0-.6-.3-.9-.3-.3-.7-.2-1.1,0-.5,0-7.6,4.9-21.6,14.3-2,1.4-3.9,2.1-5.5,2-1.8,0-5.3-1-8-1.9-3.2-1-5.8-1.6-5.5-3.4.1-.9,1.4-1.9,3.8-2.9h0c15-6.5,24.9-10.8,29.9-12.9,14.2-5.9,17.2-7,19.1-7,.4,0,1.4,0,2,.6.5.4.6,1,.7,1.4,0,.4.2,1.3,0,2Z"/>
    </g>
  </g>
</svg>