<?xml version="1.0" encoding="UTF-8"?>
<svg id="_Слой_2" data-name="Слой 2" xmlns="http://www.w3.org/2000/svg" viewBox="0 0 100 100">
  <defs>
    <style>
      .cls-1 {
        fill: #fff;
        fill-rule: evenodd;
      }

      .cls-2 {
        fill: #27aaec;
      }
    </style>
  </defs>
  <g id="_Слой_1-2" data-name="Слой 1">
    <g id="tg_svg" data-name="tg svg">
      <path class="cls-2" d="M0,48C0,25.37,0,14.06,7.03,7.03,14.06,0,25.37,0,48,0h4c22.63,0,33.94,0,40.97,7.03,7.03,7.03,7.03,18.34,7.03,40.97v4c0,22.63,0,33.94-7.03,40.97-7.03,7.03-18.34,7.03-40.97,7.03h-4c-22.63,0-33.94,0-40.97-7.03C0,85.94,0,74.63,0,52v-4Z"/>
      <path class="cls-1" d="M23.12,48.76c14.95-6.49,24.9-10.8,29.89-12.9,14.22-5.94,17.21-6.96,19.13-7,.43,0,1.37.09,2.01.6.51.43.64.98.73,1.41s.17,1.32.09,2.01c-.77,8.11-4.1,27.8-5.81,36.86-.73,3.84-2.14,5.12-3.5,5.25-2.99.26-5.25-1.96-8.11-3.84-4.53-2.95-7.05-4.78-11.45-7.69-5.08-3.33-1.79-5.17,1.11-8.16.77-.77,13.88-12.73,14.14-13.79.04-.13.04-.64-.26-.9-.3-.26-.73-.17-1.07-.09-.47.09-7.64,4.87-21.61,14.31-2.05,1.41-3.89,2.09-5.55,2.05-1.84-.04-5.34-1.02-7.99-1.88-3.2-1.02-5.77-1.58-5.55-3.37.13-.94,1.41-1.88,3.8-2.86Z"/>
    </g>
  </g>
</svg>