<?xml version="1.0" encoding="UTF-8"?>
<svg id="_Слой_2" xmlns="http://www.w3.org/2000/svg" version="1.1" viewBox="0 0 100 100">
  <!-- Generator: Adobe Illustrator 29.6.1, SVG Export Plug-In . SVG Version: 2.1.1 Build 9)  -->
  <defs>
    <style>
      .st0 {
        fill: #fff;
      }
    </style>
  </defs>
  <g id="_Слой_1-2">
    <g id="vk_svg">
      <path class="st0" d="M93,7C85.9,0,74.6,0,52,0h-4C25.4,0,14.1,0,7,7,0,14.1,0,25.4,0,48v4c0,22.6,0,33.9,7,41,7,7,18.3,7,41,7h4c22.6,0,33.9,0,41-7,7-7,7-18.3,7-41v-4c0-22.6,0-33.9-7-41ZM71.8,72c-2.5-7.9-8.9-14-17.2-14.9v14.9h-1.3c-22.8,0-35.8-15.6-36.3-41.6h11.4c.4,19.1,8.8,27.2,15.5,28.8v-28.8h10.8v16.5c6.6-.7,13.5-8.2,15.8-16.5h10.8c-1.8,10.2-9.3,17.7-14.6,20.8,5.3,2.5,13.9,9,17.1,20.9h-11.8Z"/>
    </g>
  </g>
</svg>