<?xml version="1.0" encoding="UTF-8"?>
<svg id="_Слой_2" data-name="Слой 2" xmlns="http://www.w3.org/2000/svg" viewBox="0 0 100 100">
  <defs>
    <style>
      .cls-1 {
        fill: #fff;
      }

      .cls-2 {
        fill: #07f;
      }
    </style>
  </defs>
  <g id="_Слой_1-2" data-name="Слой 1">
    <g id="vk_svg" data-name="vk svg">
      <path class="cls-2" d="M0,48C0,25.37,0,14.06,7.03,7.03,14.06,0,25.37,0,48,0h4c22.63,0,33.94,0,40.97,7.03,7.03,7.03,7.03,18.34,7.03,40.97v4c0,22.63,0,33.94-7.03,40.97-7.03,7.03-18.34,7.03-40.97,7.03h-4c-22.63,0-33.94,0-40.97-7.03C0,85.94,0,74.63,0,52v-4Z"/>
      <path class="cls-1" d="M53.21,72.04c-22.79,0-35.79-15.63-36.33-41.63h11.42c.38,19.08,8.79,27.17,15.46,28.83v-28.83h10.75v16.46c6.58-.71,13.5-8.21,15.83-16.46h10.75c-1.79,10.17-9.29,17.67-14.62,20.75,5.33,2.5,13.88,9.04,17.13,20.88h-11.83c-2.54-7.92-8.87-14.04-17.25-14.88v14.88h-1.29Z"/>
    </g>
  </g>
</svg>