<?xml version="1.0" encoding="UTF-8"?>
<svg id="_Слой_2" data-name="Слой 2" xmlns="http://www.w3.org/2000/svg" viewBox="0 0 215.64 215.64">
  <defs>
    <style>
      .cls-1 {
        fill: #bfe03d;
      }
    </style>
  </defs>
  <g id="_Слой_1-2" data-name="Слой 1">
    <path class="cls-1" d="M117.67,5.75l18.69,33.14,36.66-10.22c8.49-2.37,16.3,5.45,13.93,13.93l-10.22,36.66,33.14,18.69c7.67,4.33,7.67,15.38,0,19.71l-33.14,18.69,10.22,36.66c2.37,8.49-5.45,16.3-13.93,13.93l-36.66-10.22-18.69,33.14c-4.33,7.67-15.38,7.67-19.71,0l-18.69-33.14-36.66,10.22c-8.49,2.37-16.3-5.45-13.93-13.93l10.22-36.66L5.75,117.67c-7.67-4.33-7.67-15.38,0-19.71l33.14-18.69-10.22-36.66c-2.37-8.49,5.45-16.3,13.93-13.93l36.66,10.22L97.97,5.75c4.33-7.67,15.38-7.67,19.71,0Z"/>
  </g>
</svg>